<?xml version="1.0" standalone="no"?>
<!DOCTYPE svg PUBLIC "-//W3C//DTD SVG 20010904//EN"
 "http://www.w3.org/TR/2001/REC-SVG-20010904/DTD/svg10.dtd">
<svg version="1.0" xmlns="http://www.w3.org/2000/svg"
 width="500.000000pt" height="500.000000pt" viewBox="0 0 500.000000 500.000000"
 preserveAspectRatio="xMidYMid meet">
<metadata>
Created by potrace 1.11, written by Peter Selinger 2001-2013
</metadata>
<g transform="translate(0.000000,500.000000) scale(0.100000,-0.100000)"
fill="#000000" stroke="none">
<path d="M880 4305 c-8 -10 -31 -15 -70 -15 -39 0 -62 -5 -70 -15 -8 -10 -31
-15 -71 -15 -50 0 -61 -3 -73 -22 -21 -35 -300 -2336 -285 -2354 18 -22 581
-20 599 1 8 10 31 15 66 15 33 0 58 5 68 15 8 8 28 15 45 15 25 0 30 -4 33
-27 l3 -28 181 -3 181 -2 12 -53 c6 -29 25 -82 42 -117 63 -134 148 -229 377
-419 l104 -86 -171 -5 c-117 -3 -174 -9 -183 -18 -7 -7 -37 -12 -69 -12 -38 0
-61 -5 -69 -15 -8 -10 -30 -15 -62 -15 -74 0 -92 -23 -106 -136 -15 -117 -15
-154 3 -239 42 -201 192 -348 412 -406 102 -27 293 -29 408 -5 402 85 510 129
650 270 110 110 166 211 205 364 l11 42 593 0 c515 0 595 2 606 15 8 10 30 15
65 15 37 0 60 6 78 20 17 14 40 20 75 20 33 0 54 5 62 16 15 17 76 485 66 509
-5 13 -49 15 -343 15 -186 0 -343 4 -349 8 -9 5 17 249 97 902 60 492 109 898
109 902 0 4 -7 14 -16 22 -23 23 -565 24 -584 1 -8 -10 -30 -15 -64 -15 -30 0
-60 -6 -72 -15 -10 -8 -40 -15 -66 -15 -34 0 -54 -6 -72 -22 -24 -22 -27 -38
-71 -408 -25 -212 -48 -396 -51 -409 l-5 -24 -18 29 c-53 86 -164 168 -288
211 -74 26 -87 28 -248 28 -156 -1 -181 -4 -304 -33 -74 -18 -135 -31 -136
-30 -2 2 39 345 91 762 65 534 90 765 83 778 -9 17 -29 18 -298 18 -244 0
-290 -2 -301 -15 -8 -10 -31 -15 -70 -15 -39 0 -62 -5 -70 -15 -18 -22 -70
-20 -70 3 0 40 -13 42 -306 42 -238 0 -283 -2 -294 -15z m2165 -2302 c-5 -27
-65 -518 -65 -530 0 -3 -14 13 -31 37 -42 58 -135 148 -298 289 -75 65 -145
128 -155 140 l-19 21 185 0 c170 0 187 2 211 20 17 14 40 20 75 20 32 0 54 5
62 15 21 25 40 18 35 -12z"/>
</g>
</svg>
